<svg xmlns="http://www.w3.org/2000/svg" version="1.1" xmlns:xlink="http://www.w3.org/1999/xlink" xmlns:svgjs="http://svgjs.dev/svgjs" width="2000" height="1968" viewBox="0 0 2000 1968"><g transform="matrix(1,0,0,1,-0.693447131974267,0.7967611336032405)"><svg viewBox="0 0 251 247" data-background-color="#000000" preserveAspectRatio="xMidYMid meet" height="1968" width="2000" xmlns="http://www.w3.org/2000/svg" xmlns:xlink="http://www.w3.org/1999/xlink"><g id="tight-bounds" transform="matrix(1,0,0,1,0.08702761506276602,-0.09999999999999432)"><svg viewBox="0 0 250.82594476987447 247.2" height="247.2" width="250.82594476987447"><rect width="250.82594476987447" height="247.2" fill="url(#fe4c7e56-a6f2-4991-83a4-cfebf05c3dcd)" mask="url(#a99d7324-dd85-46d1-8894-0afa0fd9aea0)" data-fill-palette-color="tertiary"></rect><g><svg viewBox="0 0 250.82594476987447 247.2" height="247.2" width="250.82594476987447"><g><svg viewBox="0 0 250.82594476987447 247.2" height="247.2" width="250.82594476987447"><g id="textblocktransform"><svg viewBox="0 0 250.82594476987447 247.2" height="247.2" width="250.82594476987447" id="textblock"><g><svg viewBox="0 0 250.82594476987447 247.2" height="247.2" width="250.82594476987447"><rect width="250.82594476987447" height="247.2" x="0" y="0" opacity="1" fill="url(#fe4c7e56-a6f2-4991-83a4-cfebf05c3dcd)" data-fill-palette-color="tertiary"></rect><g transform="matrix(1,0,0,1,23.607599999999998,23.607599999999998)"><svg width="203.61074476987446" viewBox="0.65 -35.85 36.5 35.85" height="199.9848" data-palette-color="#000000"><path d="M5.85 0L2.1 0 16.45-35.85 21.35-35.85 35.7 0 31.95 0Q31.3 0 30.9-0.33 30.5-0.65 30.3-1.15L30.3-1.15 19.95-27.9Q19.7-28.6 19.43-29.43 19.15-30.25 18.9-31.25L18.9-31.25Q18.6-30.25 18.35-29.4 18.1-28.55 17.85-27.85L17.85-27.85 7.5-1.15Q7.35-0.7 6.93-0.35 6.5 0 5.85 0L5.85 0ZM8.45 0L5.8 0 5.8-3.1 8.45-3.1 8.45 0ZM27.7-10.6L10.25-10.6 11.6-14.1 26.35-14.1 27.7-10.6ZM32.15 0L29.5 0 29.5-3.1 32.15-3.1 32.15 0ZM5.75 0L0.65 0 0.65-2.05Q0.65-2.5 0.85-2.78 1.05-3.05 1.45-3.1L1.45-3.1 5.2-3.9 5.75 0ZM11.1 0L6 0 6.55-3.9 10.3-3.1Q10.7-3.05 10.9-2.78 11.1-2.5 11.1-2.05L11.1-2.05 11.1 0ZM31.8 0L26.7 0 26.7-2.05Q26.7-2.5 26.9-2.78 27.1-3.05 27.5-3.1L27.5-3.1 31.25-3.9 31.8 0ZM37.15 0L32.05 0 32.6-3.9 36.35-3.1Q36.75-3.05 36.95-2.78 37.15-2.5 37.15-2.05L37.15-2.05 37.15 0Z" opacity="1" transform="matrix(1,0,0,1,0,0)" fill="#000000" class="wordmark-text-0" data-fill-palette-color="quaternary" id="text-0"></path></svg></g></svg></g></svg></g></svg></g></svg></g><defs></defs><mask id="a99d7324-dd85-46d1-8894-0afa0fd9aea0"><g id="SvgjsG1810"><svg viewBox="0 0 250.82594476987447 247.2" height="247.2" width="250.82594476987447"><g><svg viewBox="0 0 250.82594476987447 247.2" height="247.2" width="250.82594476987447"><g><svg viewBox="0 0 250.82594476987447 247.2" height="247.2" width="250.82594476987447"><g id="SvgjsG1809"><svg viewBox="0 0 250.82594476987447 247.2" height="247.2" width="250.82594476987447" id="SvgjsSvg1808"><g><svg viewBox="0 0 250.82594476987447 247.2" height="247.2" width="250.82594476987447"><rect width="250.82594476987447" height="247.2" x="0" y="0" opacity="1" fill="white"></rect><g transform="matrix(1,0,0,1,23.607599999999998,23.607599999999998)"><svg width="203.61074476987446" viewBox="0.65 -35.85 36.5 35.85" height="199.9848" data-palette-color="#000000"><path d="M5.85 0L2.1 0 16.45-35.85 21.35-35.85 35.7 0 31.95 0Q31.3 0 30.9-0.33 30.5-0.65 30.3-1.15L30.3-1.15 19.95-27.9Q19.7-28.6 19.43-29.43 19.15-30.25 18.9-31.25L18.9-31.25Q18.6-30.25 18.35-29.4 18.1-28.55 17.85-27.85L17.85-27.85 7.5-1.15Q7.35-0.7 6.93-0.35 6.5 0 5.85 0L5.85 0ZM8.45 0L5.8 0 5.8-3.1 8.45-3.1 8.45 0ZM27.7-10.6L10.25-10.6 11.6-14.1 26.35-14.1 27.7-10.6ZM32.15 0L29.5 0 29.5-3.1 32.15-3.1 32.15 0ZM5.75 0L0.65 0 0.65-2.05Q0.65-2.5 0.85-2.78 1.05-3.05 1.45-3.1L1.45-3.1 5.2-3.9 5.75 0ZM11.1 0L6 0 6.55-3.9 10.3-3.1Q10.7-3.05 10.9-2.78 11.1-2.5 11.1-2.05L11.1-2.05 11.1 0ZM31.8 0L26.7 0 26.7-2.05Q26.7-2.5 26.9-2.78 27.1-3.05 27.5-3.1L27.5-3.1 31.25-3.9 31.8 0ZM37.15 0L32.05 0 32.6-3.9 36.35-3.1Q36.75-3.05 36.95-2.78 37.15-2.5 37.15-2.05L37.15-2.05 37.15 0Z" opacity="1" transform="matrix(1,0,0,1,0,0)" fill="black" class="wordmark-text-0" id="SvgjsPath1807"></path></svg></g></svg></g></svg></g></svg></g></svg></g><defs><mask></mask></defs></svg><rect width="250.82594476987447" height="247.2" fill="black" stroke="none" visibility="hidden"></rect></g></mask><linearGradient x1="0" x2="1" y1="0.5" y2="0.5" id="fe4c7e56-a6f2-4991-83a4-cfebf05c3dcd"><stop stop-color="#ffa62e" offset="0"></stop><stop stop-color="#f71b3d" offset="1"></stop></linearGradient></svg><rect width="250.82594476987447" height="247.2" fill="none" stroke="none" visibility="hidden"></rect></g></svg></g></svg>